<svg width="25" height="24" viewBox="0 0 25 24" fill="none" xmlns="http://www.w3.org/2000/svg">
<path d="M7.1665 4V2.5H8.1665V4V4.5H8.6665H16.6665H17.1665V4V2.5H18.1665V4V4.5H18.6665H19.6665C20.0827 4.5 20.4269 4.64248 20.726 4.94155C21.0242 5.23978 21.1665 5.58354 21.1665 6V20C21.1665 20.4163 21.0242 20.7605 20.726 21.0594C20.427 21.3577 20.0828 21.5 19.6665 21.5H5.6665C5.2501 21.5 4.90589 21.3577 4.60693 21.0593C4.30873 20.7604 4.1665 20.4163 4.1665 20V6C4.1665 5.58354 4.30883 5.23978 4.60706 4.94155C4.90613 4.64248 5.25029 4.5 5.6665 4.5H6.6665H7.1665V4ZM5.1665 20V20.5H5.6665H19.6665H20.1665V20V10V9.5H19.6665H5.6665H5.1665V10V20Z" fill="#535665" stroke="#535665"/>
</svg>
