<svg width="25" height="24" viewBox="0 0 25 24" fill="none" xmlns="http://www.w3.org/2000/svg">
<g clip-path="url(#clip0_11445_5726)">
<path d="M15.8335 6V6.5H16.3335H20.3335C21.1674 6.5 21.8335 7.16614 21.8335 8V19C21.8335 19.8339 21.1674 20.5 20.3335 20.5H4.3335C3.49971 20.5 2.83361 19.834 2.8335 19.0002C2.8335 19.0001 2.8335 19.0001 2.8335 19L2.8435 8.00045V8C2.8435 7.16286 3.50291 6.5 4.3335 6.5H8.3335H8.8335V6V4C8.8335 3.16614 9.49964 2.5 10.3335 2.5H14.3335C15.1674 2.5 15.8335 3.16614 15.8335 4V6ZM14.3335 6.5H14.8335V6V4V3.5H14.3335H10.3335H9.8335V4V6V6.5H10.3335H14.3335Z" fill="#535665" stroke="#535665"/>
</g>
<defs>
<clipPath id="clip0_11445_5726">
<rect width="24" height="24" fill="white" transform="translate(0.333496)"/>
</clipPath>
</defs>
</svg>
